<?xml version="1.0" standalone="no"?>
<!DOCTYPE svg PUBLIC "-//W3C//DTD SVG 20010904//EN"
 "http://www.w3.org/TR/2001/REC-SVG-20010904/DTD/svg10.dtd">
<svg version="1.0" xmlns="http://www.w3.org/2000/svg"
 width="32.000000pt" height="32.000000pt" viewBox="0 0 32.000000 32.000000"
 preserveAspectRatio="xMidYMid meet">

<g transform="translate(0.000000,32.000000) scale(0.100000,-0.100000)"
fill="#000000" stroke="none">
<path d="M132 300 c-76 -17 -101 -69 -94 -192 l5 -88 51 -1 c62 -2 170 2 173
5 2 1 5 43 7 92 5 77 2 95 -14 122 -26 42 -85 71 -128 62z m83 -30 c3 -5 1
-10 -4 -10 -6 0 -11 5 -11 10 0 6 2 10 4 10 3 0 8 -4 11 -10z m-139 -37 c0
-16 3 -38 7 -50 6 -17 3 -24 -12 -33 -18 -9 -21 -7 -27 14 -5 19 20 96 31 96
1 0 2 -12 1 -27z m190 -44 c2 -19 0 -41 -5 -49 -9 -13 -12 -13 -27 2 -14 13
-15 20 -5 31 6 8 11 19 10 23 -1 5 -1 18 0 29 2 30 21 4 27 -36z m-106 -51 c0
-13 -23 -5 -28 10 -2 7 2 10 12 6 9 -3 16 -11 16 -16z m-63 -34 c2 -6 -8 -19
-22 -28 -25 -16 -25 -16 -25 14 0 27 3 31 22 28 12 -2 23 -8 25 -14z m47 0
c11 -29 6 -39 -19 -39 -14 0 -25 1 -25 2 0 1 4 13 10 27 11 29 25 34 34 10z
m64 -6 c2 -11 -3 -18 -12 -18 -9 0 -16 -5 -16 -11 0 -5 -4 -7 -10 -4 -5 3 -10
17 -10 31 0 21 4 25 22 22 13 -2 24 -11 26 -20z m44 15 c-10 -4 -9 -9 4 -24
16 -17 16 -19 0 -25 -10 -4 -23 -1 -29 5 -9 9 -7 11 8 6 19 -6 19 -6 1 9 -20
16 -14 36 12 35 11 0 13 -2 4 -6z"/>
<path d="M65 100 c-3 -5 -1 -10 4 -10 6 0 11 5 11 10 0 6 -2 10 -4 10 -3 0 -8
-4 -11 -10z"/>
<path d="M180 100 c0 -5 5 -10 10 -10 6 0 10 5 10 10 0 6 -4 10 -10 10 -5 0
-10 -4 -10 -10z"/>
</g>
</svg>
